<svg width="394" height="279" viewBox="0 0 394 279" fill="none" xmlns="http://www.w3.org/2000/svg">
<path d="M20.3654 106.666C16.1038 104.885 15.3683 99.1583 19.0415 96.3582L62.6708 63.0989C66.344 60.2988 71.671 62.5251 72.2594 67.1062L79.2481 121.52C79.8365 126.101 75.245 129.601 70.9834 127.82L20.3654 106.666Z" stroke="white" stroke-width="4"/>
<circle cx="84.5" cy="144.5" r="59.5" fill="#F8C768"/>
<path d="M303.429 96.7923C306.999 93.8615 312.403 95.8941 313.156 100.451L333.071 220.926C333.824 225.483 329.362 229.146 325.038 227.52L210.747 184.529C206.424 182.903 205.482 177.207 209.052 174.276L303.429 96.7923Z" stroke="white" stroke-width="4"/>
<path d="M226.766 55.3912C226.141 50.815 230.703 47.2773 234.979 49.0233L299.407 75.3309C303.683 77.077 304.465 82.7972 300.815 85.6274L245.818 128.269C242.168 131.1 236.823 128.917 236.197 124.341L226.766 55.3912Z" fill="white" stroke="white" stroke-width="4"/>
<rect x="108" width="156" height="204" rx="8" fill="url(#paint0_linear_10_53)"/>
<path d="M108 176H264V196C264 200.418 260.418 204 256 204H116C111.582 204 108 200.418 108 196V176Z" fill="white" fill-opacity="0.5"/>
<rect x="159" y="14" width="54" height="12" rx="6" fill="#D9D9D9" fill-opacity="0.5"/>
<rect x="117" y="184" width="54" height="12" rx="6" fill="white" fill-opacity="0.5"/>
<rect x="205" y="184" width="54" height="12" rx="6" fill="white" fill-opacity="0.5"/>
<rect x="129" y="76" width="113" height="12" rx="6" fill="#D9D9D9" fill-opacity="0.5"/>
<rect x="144" y="96" width="82" height="12" rx="6" fill="#D9D9D9" fill-opacity="0.5"/>
<defs>
<linearGradient id="paint0_linear_10_53" x1="264" y1="-7.11048e-06" x2="108" y2="204" gradientUnits="userSpaceOnUse">
<stop stop-color="#385A71"/>
<stop offset="1" stop-color="#75C7FF"/>
</linearGradient>
</defs>
</svg>
